<?xml version="1.0" encoding="UTF-8" standalone="no"?>
<svg
   xmlns:dc="http://purl.org/dc/elements/1.1/"
   xmlns:cc="http://creativecommons.org/ns#"
   xmlns:rdf="http://www.w3.org/1999/02/22-rdf-syntax-ns#"
   xmlns:svg="http://www.w3.org/2000/svg"
   xmlns="http://www.w3.org/2000/svg"
   id="svg46"
   version="1.1"
   height="54"
   width="54"
   viewBox="0 0 54 54">
  <metadata
     id="metadata52">
    <rdf:RDF>
      <cc:Work
         rdf:about="">
        <dc:format>image/svg+xml</dc:format>
        <dc:type
           rdf:resource="http://purl.org/dc/dcmitype/StillImage" />
        <dc:title></dc:title>
      </cc:Work>
    </rdf:RDF>
  </metadata>
  <defs
     id="defs50" />
  <linearGradient
     gradientTransform="translate(-5,-5)"
     spreadMethod="reflect"
     gradientUnits="userSpaceOnUse"
     y2="55.341999"
     y1="16"
     x2="30.999001"
     x1="30.999001"
     id="KpzH_ttTMIjq8dhx1zD2pa">
    <stop
       id="stop32"
       stop-color="#6dc7ff"
       offset="0" />
    <stop
       id="stop34"
       stop-color="#e6abff"
       offset="1" />
  </linearGradient>
  <path
     style="fill:url(#KpzH_ttTMIjq8dhx1zD2pa)"
     id="path37"
     d="m 20.008,51.007 c -0.003,-0.368 -0.006,-1.962 -0.009,-3.454 l -0.003,-1.55 C 13.267,46.918 11.638,42.223 11.62,42.173 10.686,39.805 9.409,39.128 9.354,39.1 L 9.23,39.028 C 8.767,38.712 7.539,37.871 7.888,36.765 c 0.315,-0.997 1.536,-1.1 2.091,-1.082 3.074,0.215 4.63,2.978 4.694,3.095 1.569,2.689 3.964,2.411 5.509,1.844 0.144,-0.688 0.367,-1.32 0.659,-1.878 C 15.885,37.865 10.27,35.229 10.27,25.64 c 0,-2.633 0.82,-4.96 2.441,-6.929 -0.362,-1.206 -0.774,-3.666 0.446,-6.765 l 0.174,-0.442 0.452,-0.144 c 0.416,-0.137 2.688,-0.624 7.359,2.433 1.928,-0.494 3.969,-0.749 6.074,-0.759 2.115,0.01 4.158,0.265 6.09,0.759 4.667,-3.058 6.934,-2.565 7.351,-2.433 l 0.451,0.145 0.174,0.44 c 1.225,3.098 0.813,5.559 0.451,6.766 1.618,1.963 2.438,4.291 2.438,6.929 0,9.591 -5.621,12.219 -10.588,13.087 0.563,1.065 0.868,2.402 0.868,3.878 0,1.683 -0.007,7.204 -0.015,8.402 l -2,-0.014 c 0.008,-1.196 0.015,-6.708 0.015,-8.389 0,-2.442 -0.943,-3.522 -1.35,-3.874 l -1.73,-1.497 2.274,-0.253 C 36.85,36.402 42.17,34.601 42.17,25.639 c 0,-2.33 -0.777,-4.361 -2.31,-6.036 l -0.43,-0.469 0.242,-0.587 c 0.166,-0.401 0.894,-2.442 -0.043,-5.291 -0.758,0.045 -2.568,0.402 -5.584,2.447 l -0.384,0.259 -0.445,-0.123 c -1.863,-0.518 -3.938,-0.796 -6.001,-0.806 -2.052,0.01 -4.124,0.288 -5.984,0.806 l -0.445,0.123 -0.383,-0.259 c -3.019,-2.044 -4.833,-2.404 -5.594,-2.449 -0.935,2.851 -0.206,4.892 -0.04,5.293 l 0.242,0.587 -0.429,0.469 c -1.536,1.681 -2.314,3.712 -2.314,6.036 0,8.958 5.31,10.77 10.504,11.361 l 2.252,0.256 -1.708,1.49 c -0.372,0.325 -1.03,1.112 -1.254,2.727 l -0.075,0.549 -0.506,0.227 c -1.321,0.592 -5.839,2.162 -8.548,-2.485 -0.015,-0.025 -0.544,-0.945 -1.502,-1.557 0.646,0.639 1.433,1.673 2.068,3.287 0.066,0.19 1.357,3.622 7.28,2.339 l 1.206,-0.262 0.012,3.978 c 0.003,1.487 0.006,3.076 0.009,3.444 z"
     fill="url(#KpzH_ttTMIjq8dhx1zD2pa)" />
  <linearGradient
     gradientTransform="translate(-5,-5)"
     spreadMethod="reflect"
     gradientUnits="userSpaceOnUse"
     y2="59.167"
     y1="5"
     x2="32"
     x1="32"
     id="KpzH_ttTMIjq8dhx1zD2pb">
    <stop
       id="stop39"
       stop-color="#1a6dff"
       offset="0" />
    <stop
       id="stop41"
       stop-color="#c822ff"
       offset="1" />
  </linearGradient>
  <path
     style="fill:url(#KpzH_ttTMIjq8dhx1zD2pb)"
     id="path44"
     d="M 27,53 C 12.663,53 1,41.337 1,27 1,12.663 12.663,1 27,1 41.337,1 53,12.663 53,27 53,41.337 41.337,53 27,53 Z M 27,3 C 13.767,3 3,13.767 3,27 3,40.233 13.767,51 27,51 40.233,51 51,40.233 51,27 51,13.767 40.233,3 27,3 Z"
     fill="url(#KpzH_ttTMIjq8dhx1zD2pb)" />
</svg>
