<?xml version="1.0" encoding="UTF-8" standalone="no"?>
<svg
   xmlns:dc="http://purl.org/dc/elements/1.1/"
   xmlns:cc="http://creativecommons.org/ns#"
   xmlns:rdf="http://www.w3.org/1999/02/22-rdf-syntax-ns#"
   xmlns:svg="http://www.w3.org/2000/svg"
   xmlns="http://www.w3.org/2000/svg"
   id="svg60"
   version="1.1"
   height="54"
   width="54"
   viewBox="0 0 54 54">
  <metadata
     id="metadata66">
    <rdf:RDF>
      <cc:Work
         rdf:about="">
        <dc:format>image/svg+xml</dc:format>
        <dc:type
           rdf:resource="http://purl.org/dc/dcmitype/StillImage" />
        <dc:title></dc:title>
      </cc:Work>
    </rdf:RDF>
  </metadata>
  <defs
     id="defs64" />
  <linearGradient
     gradientTransform="translate(-5,-5)"
     spreadMethod="reflect"
     gradientUnits="userSpaceOnUse"
     y2="46"
     y1="19.006001"
     x2="29.5"
     x1="29.5"
     id="EEzBmxT86u8E~6vCqQtLma">
    <stop
       id="stop39"
       stop-color="#6dc7ff"
       offset="0" />
    <stop
       id="stop41"
       stop-color="#e6abff"
       offset="1" />
  </linearGradient>
  <path
     style="fill:url(#EEzBmxT86u8E~6vCqQtLma)"
     id="path44"
     d="M 17.007,30.25 34.022,20 22.011,32.5 32.546,40.775 c 1.887,0.83 2.574,-0.899 2.574,-0.899 l 4.825,-24.501 c 0,0 0.082,-0.625 0.045,-0.75 C 39.646,13.457 37.762,14.3 37.763,14.301 L 10.206,25.188 c 0,0 -1.304,0.449 -1.201,1.278 0.103,0.83 1.167,1.209 1.167,1.209 l 6.837,2.575"
     fill="url(#EEzBmxT86u8E~6vCqQtLma)" />
  <linearGradient
     gradientTransform="translate(-5,-5)"
     spreadMethod="reflect"
     gradientUnits="userSpaceOnUse"
     y2="58.262001"
     y1="5.8330002"
     x2="29.5"
     x1="29.5"
     id="EEzBmxT86u8E~6vCqQtLmb">
    <stop
       id="stop46"
       stop-color="#1a6dff"
       offset="0" />
    <stop
       id="stop48"
       stop-color="#c822ff"
       offset="1" />
  </linearGradient>
  <path
     style="fill:url(#EEzBmxT86u8E~6vCqQtLmb)"
     id="path51"
     d="M 40.949,14.343 C 40.719,13.559 40.09,13.074 39.222,13.013 39.047,13 38.063,13.04 37.399,13.378 L 37.396,13.371 9.881,24.243 C 8.996,24.547 8.02,25.266 8,26.33 c -0.002,0.084 0.003,0.171 0.014,0.26 0.173,1.4 1.654,1.968 1.807,2.021 l 6.377,2.402 c 0.49,1.575 2.108,6.774 2.456,7.886 0.234,0.744 0.62,1.709 1.327,1.973 0.204,0.084 0.421,0.128 0.647,0.128 0.614,0 1.014,-0.312 1.163,-0.447 l 3.903,-3.89 6.235,4.897 c 0.065,0.052 0.138,0.096 0.215,0.129 0.517,0.228 0.976,0.31 1.367,0.31 0.409,0 0.745,-0.089 0.998,-0.193 1.067,-0.438 1.494,-1.447 1.54,-1.561 0.022,-0.057 0.04,-0.116 0.052,-0.176 l 4.835,-24.564 c 0.111,-0.836 0.051,-1.033 0.013,-1.162 z m -22.754,16.358 9.872,-5.947 -6.775,7.053 c -0.12,0.124 -0.188,0.279 -0.229,0.442 -0.003,0.012 -1.006,4.43 -1.006,4.43 z m 20.768,-15.513 -4.799,24.37 c -0.057,0.098 -0.2,0.311 -0.413,0.398 -0.179,0.073 -0.412,0.055 -0.694,-0.053 L 23.498,32.396 34.743,20.692 c 0.348,-0.361 0.374,-0.925 0.061,-1.316 -0.312,-0.391 -0.867,-0.491 -1.297,-0.232 l -16.601,10 -6.389,-2.406 c -0.196,-0.075 -0.398,-0.221 -0.481,-0.323 0.109,-0.096 0.329,-0.221 0.537,-0.296 L 38.131,15.23 c 0.017,-0.006 0.033,-0.014 0.05,-0.021 0.251,-0.11 0.59,-0.192 0.803,-0.205 -0.01,0.1 -0.021,0.183 -0.021,0.184 z"
     fill="url(#EEzBmxT86u8E~6vCqQtLmb)" />
  <linearGradient
     gradientTransform="translate(-5,-5)"
     spreadMethod="reflect"
     gradientUnits="userSpaceOnUse"
     y2="58.262001"
     y1="5.8330002"
     x2="32"
     x1="32"
     id="EEzBmxT86u8E~6vCqQtLmc">
    <stop
       id="stop53"
       stop-color="#1a6dff"
       offset="0" />
    <stop
       id="stop55"
       stop-color="#c822ff"
       offset="1" />
  </linearGradient>
  <path
     style="fill:url(#EEzBmxT86u8E~6vCqQtLmc)"
     id="path58"
     d="M 27,53 C 12.663,53 1,41.336 1,27 1,12.664 12.663,1 27,1 41.337,1 53,12.664 53,27 53,41.336 41.337,53 27,53 Z M 27,3 C 13.767,3 3,13.767 3,27 3,40.233 13.767,51 27,51 40.233,51 51,40.233 51,27 51,13.767 40.233,3 27,3 Z"
     fill="url(#EEzBmxT86u8E~6vCqQtLmc)" />
</svg>
