<?xml version="1.0" encoding="UTF-8" standalone="no"?>
<svg
   xmlns:dc="http://purl.org/dc/elements/1.1/"
   xmlns:cc="http://creativecommons.org/ns#"
   xmlns:rdf="http://www.w3.org/1999/02/22-rdf-syntax-ns#"
   xmlns:svg="http://www.w3.org/2000/svg"
   xmlns="http://www.w3.org/2000/svg"
   id="svg46"
   version="1.1"
   height="54"
   width="54"
   viewBox="0 0 54 54">
  <metadata
     id="metadata52">
    <rdf:RDF>
      <cc:Work
         rdf:about="">
        <dc:format>image/svg+xml</dc:format>
        <dc:type
           rdf:resource="http://purl.org/dc/dcmitype/StillImage" />
        <dc:title></dc:title>
      </cc:Work>
    </rdf:RDF>
  </metadata>
  <defs
     id="defs50" />
  <linearGradient
     gradientTransform="translate(-5.0000098,-5)"
     gradientUnits="userSpaceOnUse"
     y2="56.834"
     y1="16.627001"
     x2="32.526001"
     x1="32.526001"
     id="rhA40cqBlsJ1wx2ZjgJTqa">
    <stop
       id="stop32"
       stop-color="#6dc7ff"
       offset="0" />
    <stop
       id="stop34"
       stop-color="#e6abff"
       offset="1" />
  </linearGradient>
  <path
     style="fill:url(#rhA40cqBlsJ1wx2ZjgJTqa)"
     id="path37"
     d="m 30.519989,33.891 h 6.729 l 1.057,-6.835 h -7.786 V 23.32 c 0,-2.839 0.928,-5.358 3.584,-5.358 h 4.268 v -5.966 c -0.75,-0.101 -2.335,-0.323 -5.332,-0.323 -6.258,0 -9.926,3.305 -9.926,10.834 v 4.548 h -6.433 v 6.835 h 6.433 v 17.788 c 1.271,0.191 2.562,0.322 3.886,0.322 1.197,0 2.366,-0.109 3.52,-0.266 z"
     fill="url(#rhA40cqBlsJ1wx2ZjgJTqa)" />
  <linearGradient
     gradientUnits="userSpaceOnUse"
     gradientTransform="matrix(1,0,0,-1,-5.0000098,59)"
     y2="6"
     y1="58"
     x2="32"
     x1="32"
     id="rhA40cqBlsJ1wx2ZjgJTqb">
    <stop
       id="stop39"
       stop-color="#1a6dff"
       offset="0" />
    <stop
       id="stop41"
       stop-color="#c822ff"
       offset="1" />
  </linearGradient>
  <path
     style="stroke:url(#rhA40cqBlsJ1wx2ZjgJTqb)"
     id="path44"
     d="m 26.999989,2 a 25,25 0 1 0 0,50 25,25 0 1 0 0,-50 z"
     stroke-width="2"
     stroke-miterlimit="10"
     stroke="url(#rhA40cqBlsJ1wx2ZjgJTqb)"
     fill="none" />
</svg>
